<?xml version="1.0" encoding="UTF-8" standalone="no"?>
<!-- Created with Inkscape (http://www.inkscape.org/) -->

<svg
   width="5.0799999cm"
   height="5.0799999cm"
   viewBox="0 0 50.799999 50.8"
   version="1.1"
   id="svg707"
   inkscape:version="1.2.1 (9c6d41e410, 2022-07-14)"
   sodipodi:docname="logo.svg"
   xml:space="preserve"
   inkscape:export-filename="logo.png"
   inkscape:export-xdpi="96"
   inkscape:export-ydpi="96"
   xmlns:inkscape="http://www.inkscape.org/namespaces/inkscape"
   xmlns:sodipodi="http://sodipodi.sourceforge.net/DTD/sodipodi-0.dtd"
   xmlns:xlink="http://www.w3.org/1999/xlink"
   xmlns="http://www.w3.org/2000/svg"
   xmlns:svg="http://www.w3.org/2000/svg"
   xmlns:rdf="http://www.w3.org/1999/02/22-rdf-syntax-ns#"
   xmlns:cc="http://creativecommons.org/ns#"
   xmlns:dc="http://purl.org/dc/elements/1.1/"><title
     id="title9125">errorbar diagonal logo</title><sodipodi:namedview
     id="namedview709"
     pagecolor="#ffffff"
     bordercolor="#111111"
     borderopacity="1"
     inkscape:showpageshadow="0"
     inkscape:pageopacity="0"
     inkscape:pagecheckerboard="1"
     inkscape:deskcolor="#d1d1d1"
     inkscape:document-units="mm"
     showgrid="false"
     inkscape:zoom="1.4788159"
     inkscape:cx="113.6044"
     inkscape:cy="178.85931"
     inkscape:window-width="1920"
     inkscape:window-height="991"
     inkscape:window-x="-9"
     inkscape:window-y="-9"
     inkscape:window-maximized="1"
     inkscape:current-layer="layer1" /><defs
     id="defs704" /><g
     inkscape:label="Layer 1"
     inkscape:groupmode="layer"
     id="layer1"><path
       sodipodi:type="star"
       style="display:inline;fill:#7ea7ea;fill-opacity:1;stroke-width:0.203;stroke-linecap:round;stroke-dashoffset:6"
       id="path6784"
       inkscape:flatsided="true"
       sodipodi:sides="6"
       sodipodi:cx="0"
       sodipodi:cy="0"
       sodipodi:r1="165.92125"
       sodipodi:r2="143.69202"
       sodipodi:arg1="0"
       sodipodi:arg2="0.52359878"
       inkscape:rounded="0"
       inkscape:randomized="0"
       d="m 165.92125,0 -82.960625,143.69202 -165.92125,0 L -165.92125,0 l 82.960625,-143.69202 165.92125,0 z"
       transform="matrix(0.13257521,-0.07654234,0.07654234,0.13257521,25.4,25.4)"
       inkscape:label="HexBg"
       sodipodi:insensitive="true" /><g
       id="g15947"
       inkscape:label="errorlyra"
       transform="translate(0.37383758,7.0670396)"><path
         id="path11031"
         style="display:inline;opacity:1;fill:#ffffff;fill-opacity:1;stroke:none;stroke-width:0.169307;stroke-linecap:round;stroke-dasharray:none;stroke-dashoffset:6.79559"
         d="m 9.9949614,13.047241 c -0.3537486,0.442635 -0.5672813,1.039912 -0.5558632,1.606422 0.010789,0.535303 0.2411498,1.085949 0.5859788,1.495532 0.334775,0.397641 0.820308,0.726907 1.333744,0.807998 0.53661,0.08475 1.125149,-0.08666 1.586345,-0.373767 0.418371,-0.260448 0.447152,-1.164508 0.939436,-1.141608 2.092919,0.09736 2.36124,3.461818 3.526146,5.203307 1.043407,1.559852 1.789648,3.356816 3.101956,4.698339 1.340528,1.370371 2.877051,2.776314 4.728454,3.273547 1.817939,0.488246 3.85696,0.180166 5.628668,-0.45571 1.323557,-0.475032 2.467365,-1.416805 3.461713,-2.411153 0.994348,-0.994348 1.93612,-2.138156 2.411152,-3.461712 0.635876,-1.771708 0.943956,-3.81073 0.45571,-5.628669 C 36.701168,14.808365 35.295226,13.271841 33.924855,11.931313 32.583332,10.619005 30.786367,9.8727648 29.226515,8.8293582 27.485026,7.6644523 24.120566,7.3961305 24.023209,5.3032112 24.000309,4.8109277 24.904369,4.7821474 25.164817,4.3637762 25.451924,3.9025798 25.623335,3.31404 25.538584,2.7774302 25.457493,2.263994 25.128226,1.7784622 24.730585,1.4436872 24.321002,1.0988583 23.770356,0.86849663 23.235054,0.85770724 22.668544,0.84628883 22.071266,1.0598213 21.628631,1.4135702 c -0.515204,0.4117448 -0.890112,1.0396509 -1.043322,1.68113 -0.143061,0.5989846 -0.02882,1.2543108 0.159684,1.840582 0.131937,0.4103341 0.365244,0.7974613 0.659986,1.111959 0.555837,0.5930927 1.337978,0.9234569 2.011939,1.377868 1.514929,1.0214247 3.037718,2.0312587 4.566902,3.0312168 0.925816,0.605406 1.882083,1.164966 2.78982,1.797158 0.525031,0.365657 1.078833,0.703922 1.534518,1.153048 0.507577,0.500272 0.978914,1.058843 1.308999,1.690468 0.31994,0.612213 0.556631,1.289367 0.620765,1.977155 0.108629,1.164961 -0.07534,2.365642 -0.414154,3.485526 -0.336277,1.111496 -0.754478,2.285961 -1.575607,3.10709 -0.821129,0.821129 -1.995594,1.239331 -3.10709,1.575607 -1.119884,0.338814 -2.320565,0.522782 -3.485526,0.414153 -0.687788,-0.06413 -1.364942,-0.300824 -1.977155,-0.620764 -0.631626,-0.330085 -1.190196,-0.801422 -1.690468,-1.308999 -0.449126,-0.455685 -0.787391,-1.009487 -1.153048,-1.534518 -0.632192,-0.907737 -1.191752,-1.864005 -1.797158,-2.789821 -0.999958,-1.529183 -2.009793,-3.051972 -3.031217,-4.566901 -0.454411,-0.673961 -0.784775,-1.456103 -1.377868,-2.01194 -0.314498,-0.294742 -0.701625,-0.528048 -1.111959,-0.659985 -0.586271,-0.188508 -1.241597,-0.302746 -1.840581,-0.159685 -0.641479,0.15321 -1.269385,0.528119 -1.6811296,1.043323 z"
         sodipodi:nodetypes="aaaaaaaaaaaaaaaaaaaaaaaaaaaaaaaaaaaaaaaaaaa"
         inkscape:label="lyra" /><g
         id="g6508"
         inkscape:label="errorbards"
         style="display:inline;fill:#ffffff;fill-opacity:1"
         transform="matrix(0.51177524,-0.51177524,0.51177524,0.51177524,0.12558244,17.627139)"><g
           id="g6469"
           inkscape:label="errorbard_b"
           style="fill:#ffffff;fill-opacity:1"><circle
             style="opacity:1;fill:#ffffff;fill-opacity:1;stroke:none;stroke-width:0.397499;stroke-linecap:round;stroke-dasharray:none;stroke-dashoffset:6.79559"
             id="path6460"
             cx="25.4"
             cy="25.4"
             r="1.5" /><rect
             style="opacity:1;fill:#ffffff;fill-opacity:1;stroke:none;stroke-width:0.265;stroke-linecap:round;stroke-dasharray:none;stroke-dashoffset:6.79559"
             id="rect6142"
             width="1"
             height="20"
             x="24.9"
             y="15.4" /><rect
             style="opacity:1;fill:#ffffff;fill-opacity:1;stroke:none;stroke-width:0.264999;stroke-linecap:round;stroke-dasharray:none;stroke-dashoffset:6.79559"
             id="rect6462"
             width="6"
             height="1"
             x="22.4"
             y="14.4" /><rect
             style="opacity:1;fill:#ffffff;fill-opacity:1;stroke:none;stroke-width:0.264999;stroke-linecap:round;stroke-dasharray:none;stroke-dashoffset:6.79559"
             id="rect6464"
             width="6"
             height="1"
             x="22.4"
             y="35.400002" /></g><g
           id="g6477"
           transform="translate(5.9281008)"
           inkscape:label="errorbard_c"
           style="fill:#ffffff;fill-opacity:1"><circle
             style="opacity:1;fill:#ffffff;fill-opacity:1;stroke:none;stroke-width:0.397499;stroke-linecap:round;stroke-dasharray:none;stroke-dashoffset:6.79559"
             id="circle6479"
             cx="33.400002"
             cy="25.4"
             r="1.5"
             transform="translate(-8.0000004)" /><rect
             style="opacity:1;fill:#ffffff;fill-opacity:1;stroke:none;stroke-width:0.205268;stroke-linecap:round;stroke-dasharray:none;stroke-dashoffset:6.79559"
             id="rect6471"
             width="1"
             height="12"
             x="24.9"
             y="19.4" /><rect
             style="opacity:1;fill:#ffffff;fill-opacity:1;stroke:none;stroke-width:0.264999;stroke-linecap:round;stroke-dasharray:none;stroke-dashoffset:6.79559"
             id="rect6473"
             width="6"
             height="1"
             x="22.4"
             y="18.4" /><rect
             style="opacity:1;fill:#ffffff;fill-opacity:1;stroke:none;stroke-width:0.264999;stroke-linecap:round;stroke-dasharray:none;stroke-dashoffset:6.79559"
             id="rect6475"
             width="6"
             height="1"
             x="22.4"
             y="31.4" /></g><g
           id="g6491"
           transform="translate(-5.9280477)"
           inkscape:label="errorbard_a"
           style="fill:#ffffff;fill-opacity:1"><circle
             style="opacity:1;fill:#ffffff;fill-opacity:1;stroke:none;stroke-width:0.397499;stroke-linecap:round;stroke-dasharray:none;stroke-dashoffset:6.79559"
             id="circle6483"
             cx="25.4"
             cy="25.4"
             r="1.5" /><rect
             style="opacity:1;fill:#ffffff;fill-opacity:1;stroke:none;stroke-width:0.237023;stroke-linecap:round;stroke-dasharray:none;stroke-dashoffset:6.79559"
             id="rect6485"
             width="1"
             height="16"
             x="24.9"
             y="17.4" /><rect
             style="opacity:1;fill:#ffffff;fill-opacity:1;stroke:none;stroke-width:0.264999;stroke-linecap:round;stroke-dasharray:none;stroke-dashoffset:6.79559"
             id="rect6487"
             width="6"
             height="1"
             x="22.4"
             y="16.4" /><rect
             style="opacity:1;fill:#ffffff;fill-opacity:1;stroke:none;stroke-width:0.264999;stroke-linecap:round;stroke-dasharray:none;stroke-dashoffset:6.79559"
             id="rect6489"
             width="6"
             height="1"
             x="22.4"
             y="33.400002" /></g></g></g><text
       xml:space="preserve"
       style="font-size:6.08736px;font-family:monospace;-inkscape-font-specification:monospace;text-align:center;text-anchor:middle;display:none;fill:#ffffff;fill-opacity:0;stroke:none;stroke-width:0.230074;stroke-linecap:round;stroke-dasharray:none;stroke-dashoffset:6.79559"
       x="36.795071"
       y="27.531506"
       id="text12760"
       inkscape:label="bard_text"
       transform="rotate(30)"
       sodipodi:insensitive="true"><tspan
         sodipodi:role="line"
         id="tspan12758"
         style="font-style:italic;font-variant:normal;font-weight:bold;font-stretch:normal;font-size:6.08736px;font-family:sans-serif;-inkscape-font-specification:'sans-serif Bold Italic';fill:#ffffff;fill-opacity:0;stroke:#ffffff;stroke-width:0.230074;stroke-dasharray:none;stroke-opacity:1"
         x="36.795071"
         y="27.531506">error</tspan></text><text
       xml:space="preserve"
       style="font-size:6.08736px;font-family:monospace;-inkscape-font-specification:monospace;text-align:center;text-anchor:middle;display:none;fill:#ffffff;fill-opacity:0;stroke:none;stroke-width:0.230074;stroke-linecap:round;stroke-dasharray:none;stroke-dashoffset:6.79559"
       x="8.5290308"
       y="54.185024"
       id="text14420"
       inkscape:label="error_text"
       transform="rotate(-30)"
       sodipodi:insensitive="true"><tspan
         sodipodi:role="line"
         id="tspan14418"
         style="font-style:italic;font-variant:normal;font-weight:bold;font-stretch:normal;font-size:6.08736px;font-family:sans-serif;-inkscape-font-specification:'sans-serif Bold Italic';fill:#ffffff;fill-opacity:0;stroke:#ffffff;stroke-width:0.230074;stroke-dasharray:none;stroke-opacity:1"
         x="8.5290308"
         y="54.185024">bard</tspan></text><path
       style="display:none;opacity:1;fill:#ffffff;fill-opacity:0;stroke:#ffffff;stroke-width:0.4;stroke-linecap:round;stroke-dasharray:none;stroke-dashoffset:6.79559;stroke-opacity:1"
       d="M 3.4029554,38.1 25.400001,50.799999 47.397045,38.1"
       id="path16109" /><text
       xml:space="preserve"
       style="font-style:italic;font-variant:normal;font-weight:bold;font-stretch:normal;font-size:8.20208px;font-family:sans-serif;-inkscape-font-specification:'sans-serif Bold Italic';text-align:center;letter-spacing:0px;text-anchor:middle;opacity:1;fill:#ffffff;fill-opacity:0;stroke:none;stroke-width:0.4;stroke-linecap:round;stroke-dasharray:none;stroke-dashoffset:6.79559;stroke-opacity:1"
       id="text16251"
       transform="translate(0,-2.5149202)"><textPath
         xlink:href="#path16109"
         startOffset="50%"
         id="textPath16253"
         style="font-style:normal;font-variant:normal;font-weight:normal;font-stretch:normal;font-size:8.20208px;font-family:sans-serif;-inkscape-font-specification:sans-serif;fill:#ffffff;fill-opacity:1;stroke:none"
         rotate="0 0 0 0 0 0 0 0 0 0 0 0">error  bard</textPath></text><text
       xml:space="preserve"
       style="font-style:italic;font-variant:normal;font-weight:normal;font-stretch:normal;font-size:2.80031px;font-family:sans-serif;-inkscape-font-specification:'sans-serif Italic';text-align:center;text-anchor:middle;opacity:1;fill:#ffffff;fill-opacity:1;stroke:none;stroke-width:0.132298;stroke-linecap:round;stroke-dasharray:none;stroke-dashoffset:6.79559;stroke-opacity:1"
       x="23.523838"
       y="26.379292"
       id="text19227"
       transform="rotate(30)"><tspan
         sodipodi:role="line"
         id="tspan19225"
         style="font-style:normal;font-variant:normal;font-weight:normal;font-stretch:normal;font-family:sans-serif;-inkscape-font-specification:sans-serif;stroke-width:0.132298"
         x="23.523838"
         y="26.379292">gg</tspan></text></g><metadata
     id="metadata9123"><rdf:RDF><cc:Work
         rdf:about=""><dc:title>errorbar diagonal logo</dc:title></cc:Work></rdf:RDF></metadata></svg>
